<?xml version="1.0" standalone="no"?>
<!DOCTYPE svg PUBLIC "-//W3C//DTD SVG 20010904//EN"
 "http://www.w3.org/TR/2001/REC-SVG-20010904/DTD/svg10.dtd">
<svg version="1.0" xmlns="http://www.w3.org/2000/svg"
 width="504.000000pt" height="504.000000pt" viewBox="0 0 504.000000 504.000000"
 preserveAspectRatio="xMidYMid meet">
<metadata>
Created by potrace 1.14, written by Peter Selinger 2001-2017
</metadata>
<g transform="translate(0.000000,504.000000) scale(0.100000,-0.100000)"
fill="#000000" stroke="none">
<path d="M2338 4695 c-2 -1 -30 -5 -63 -9 -69 -7 -102 -12 -165 -26 -25 -5
-56 -12 -70 -14 -14 -2 -59 -14 -100 -26 -41 -12 -79 -23 -85 -25 -5 -1 -23
-7 -40 -14 -16 -6 -43 -16 -60 -22 -80 -30 -268 -120 -273 -131 -2 -4 -8 -8
-13 -8 -25 0 -228 -140 -339 -235 -41 -34 -204 -198 -240 -240 -63 -75 -157
-208 -212 -300 -62 -103 -182 -379 -203 -465 -3 -8 -11 -40 -19 -70 -24 -84
-47 -215 -62 -350 -6 -53 -6 -361 0 -395 2 -16 8 -54 11 -84 4 -30 9 -63 11
-75 2 -12 6 -32 9 -46 11 -58 15 -77 34 -150 44 -167 143 -401 232 -546 21
-36 39 -70 39 -76 0 -6 3 -8 7 -5 3 4 18 -12 31 -35 14 -24 28 -45 31 -48 4
-3 20 -23 36 -45 35 -47 56 -72 108 -129 93 -100 109 -116 118 -116 5 0 9 -8
9 -17 0 -9 3 -14 6 -10 3 3 20 -8 36 -24 17 -16 35 -29 41 -29 5 0 6 -7 3 -16
-3 -8 -2 -12 4 -9 8 5 30 -9 65 -43 8 -6 18 -12 24 -12 6 0 11 -4 11 -9 0 -5
16 -16 35 -25 19 -9 35 -21 35 -27 0 -6 3 -8 8 -6 9 6 33 -18 26 -27 -2 -3 -1
-4 2 -1 10 7 84 -34 84 -47 0 -6 3 -8 6 -5 11 10 45 -13 38 -25 -5 -7 -2 -8 5
-3 14 8 58 -11 79 -35 9 -10 11 -10 7 -2 -6 11 -3 12 14 2 12 -6 19 -15 16
-20 -3 -6 1 -7 10 -4 9 4 24 -1 35 -11 10 -9 23 -14 29 -11 5 4 12 2 16 -4 4
-6 11 -8 16 -5 5 4 9 1 9 -4 0 -6 9 -11 20 -11 11 0 20 -5 20 -11 0 -6 9 -9
20 -6 11 3 20 1 20 -5 0 -5 4 -7 9 -3 5 3 12 1 16 -5 3 -5 17 -10 31 -10 13 0
24 -4 24 -10 0 -5 3 -9 8 -9 28 5 52 -2 46 -13 -5 -9 -2 -9 9 1 12 9 17 10 17
2 0 -7 4 -10 9 -6 6 3 14 -3 20 -12 6 -10 11 -12 11 -6 0 14 26 13 48 -1 7 -4
16 -5 19 -2 3 3 12 -2 20 -12 8 -9 12 -12 9 -5 -4 7 1 11 14 10 11 -1 20 -4
20 -8 0 -4 8 -6 18 -5 9 0 16 -5 14 -12 -1 -8 2 -11 8 -7 6 3 8 10 6 14 -8 12
58 -1 66 -13 5 -7 8 -6 8 4 1 12 3 11 11 -2 5 -10 15 -18 22 -18 8 0 8 3 -1 9
-11 6 -9 9 7 14 11 2 23 2 26 -2 8 -7 13 -8 66 -10 24 0 38 -5 34 -11 -3 -6 1
-7 9 -4 9 3 16 10 16 16 0 5 5 6 10 3 6 -4 7 -12 4 -18 -5 -8 -3 -8 7 1 15 14
33 16 25 3 -7 -11 21 -8 31 4 4 4 2 5 -6 0 -9 -5 -12 -4 -7 3 4 6 13 9 21 6 8
-4 12 -11 8 -18 -4 -6 1 -5 10 3 14 11 20 11 32 1 9 -7 18 -10 22 -6 3 3 1 6
-6 6 -7 0 -9 5 -6 11 5 7 13 4 26 -7 18 -16 19 -16 26 1 6 18 7 18 14 -1 7
-18 8 -18 8 1 1 17 3 17 11 5 8 -12 10 -12 10 -1 0 11 5 9 22 -5 22 -19 22
-19 8 0 -14 18 -13 19 3 13 10 -4 17 -2 17 6 0 8 4 7 10 -3 9 -13 11 -13 20 0
8 12 10 12 10 1 0 -11 3 -11 17 0 9 8 14 9 10 3 -3 -6 0 -11 8 -11 8 0 12 4 9
9 -3 4 5 9 18 9 23 1 38 4 48 8 17 8 59 8 55 0 -3 -5 1 -6 9 -3 9 3 13 11 10
16 -4 6 3 5 15 -1 17 -10 22 -9 27 4 3 8 10 15 16 15 5 0 7 -4 4 -8 -3 -5 1
-9 8 -9 8 0 12 6 9 14 -3 9 0 11 10 7 8 -3 18 -1 21 5 4 6 13 8 21 4 8 -3 15
0 15 6 0 6 7 8 15 5 9 -4 15 0 15 7 0 10 2 11 8 2 8 -13 37 -12 49 2 4 4 2 5
-4 1 -7 -4 -13 -2 -13 5 0 6 8 9 20 6 11 -3 20 0 20 5 0 6 8 4 17 -3 14 -12
16 -12 8 0 -6 11 -4 13 9 8 11 -5 15 -3 10 5 -5 8 -2 9 10 5 9 -4 15 -3 12 2
-6 9 16 21 37 21 7 0 6 -5 -3 -11 -13 -9 -13 -10 0 -6 8 2 15 10 15 17 0 13
27 28 53 29 8 1 10 -4 6 -12 -5 -7 -1 -7 12 3 29 22 30 24 11 17 -12 -4 -16
-3 -11 4 3 6 17 9 30 6 13 -2 21 0 18 5 -3 4 3 11 13 15 10 3 31 15 47 27 16
11 26 15 22 8 -4 -7 -2 -12 3 -12 6 0 11 6 11 14 0 8 7 17 16 20 24 9 36 7 28
-6 -4 -7 -3 -8 4 -4 6 4 8 14 5 24 -6 14 -4 15 9 4 13 -10 18 -10 24 -1 5 8 3
9 -6 4 -9 -5 -11 -4 -6 3 4 7 14 12 22 12 8 0 13 5 11 12 -1 7 4 13 11 14 6 1
17 2 23 3 5 0 7 7 3 14 -5 7 -1 7 12 -3 10 -8 16 -10 11 -5 -4 4 0 16 9 26 13
15 20 16 38 7 19 -10 20 -10 7 5 -11 14 -11 17 0 18 8 1 18 1 23 0 5 -1 6 5 3
13 -5 13 18 31 36 28 4 -1 7 3 7 8 0 6 5 10 11 10 5 0 7 -5 3 -12 -4 -7 -3 -8
4 -4 6 4 8 14 5 23 -4 10 -2 14 4 10 6 -4 14 0 17 9 3 9 13 14 21 11 9 -4 12
-1 8 9 -3 8 1 14 10 14 9 0 19 9 22 20 3 11 11 20 17 20 7 0 6 -5 -1 -14 -9
-11 -9 -16 0 -22 7 -4 9 -3 5 4 -3 6 -2 13 4 17 6 4 8 10 5 15 -7 12 30 31 41
22 5 -4 2 1 -5 11 -12 15 -12 17 4 11 14 -6 16 -4 10 6 -6 10 -4 12 9 7 10 -4
15 -3 11 3 -3 6 -1 10 5 10 6 0 9 4 5 9 -8 14 37 52 54 46 11 -4 12 -3 1 10
-10 12 -10 15 3 15 8 0 18 7 21 16 3 8 11 12 17 8 8 -4 9 -3 5 5 -9 14 12 43
25 36 4 -3 6 4 4 16 -4 18 -2 19 13 8 9 -7 14 -10 10 -5 -12 15 11 46 30 40
14 -5 15 -4 2 5 -13 10 -13 13 2 25 10 7 14 16 10 21 -4 4 3 4 15 1 12 -4 24
-2 29 5 4 8 3 9 -4 5 -24 -15 -33 6 -11 25 12 10 26 16 32 12 6 -3 7 -1 3 6
-4 6 -13 9 -19 5 -7 -3 -4 1 6 9 10 9 18 19 18 24 -1 4 3 8 8 8 5 0 13 3 17 7
4 5 2 8 -4 8 -6 0 -9 7 -6 15 5 11 10 13 19 5 8 -7 12 -5 12 5 0 8 -4 15 -9
15 -4 0 0 9 9 19 9 11 21 17 26 14 6 -3 7 -1 3 6 -12 19 3 51 22 44 14 -5 15
-3 5 7 -14 15 2 55 17 45 6 -4 7 1 3 11 -4 11 -2 15 4 11 6 -4 9 4 7 19 -2 18
2 24 11 20 10 -3 12 0 8 11 -5 12 -3 14 8 8 11 -7 11 -5 -1 10 -14 17 -13 18
4 12 16 -6 17 -5 6 8 -9 11 -9 15 -1 15 7 0 9 5 5 12 -5 7 -2 9 7 6 12 -5 14
1 11 23 -3 18 0 29 7 29 7 0 9 5 5 12 -5 8 -1 9 12 4 15 -6 17 -5 7 5 -16 16
-17 43 -1 33 8 -5 9 0 5 15 -4 18 -2 21 10 17 13 -5 14 -4 3 9 -11 13 -8 18
10 17 3 0 5 14 4 31 -1 41 5 58 20 50 8 -4 8 -3 0 6 -12 13 -7 54 5 47 3 -2 6
10 5 27 -1 18 6 38 15 45 9 8 11 11 5 8 -6 -3 -10 4 -9 17 2 12 8 21 14 19 8
-1 9 2 5 10 -15 23 -13 38 4 38 11 0 13 3 6 8 -18 11 -13 44 5 37 12 -4 11 -2
-2 9 -12 9 -14 16 -7 21 5 3 8 10 5 15 -3 5 -1 11 4 14 5 3 5 21 1 42 -6 27
-5 34 4 31 7 -3 13 1 13 9 0 7 -3 11 -7 9 -4 -2 -7 11 -7 30 0 22 4 32 11 28
6 -4 5 1 -3 10 -7 9 -9 17 -3 17 12 0 10 32 -3 43 -6 4 -4 11 5 17 13 9 13 11
0 20 -13 9 -13 10 0 10 9 0 11 3 5 8 -13 9 -15 83 -2 75 5 -3 4 4 -3 16 -6 12
-10 34 -9 49 2 15 0 33 -4 40 -5 7 -3 12 5 12 10 0 10 2 1 8 -7 5 -10 19 -8
35 3 15 1 27 -4 27 -5 0 -8 14 -7 31 1 16 -1 32 -5 35 -4 2 -6 19 -5 38 1 19
-3 32 -8 29 -5 -3 -7 8 -4 25 3 19 1 29 -6 25 -5 -4 -7 0 -3 9 3 9 2 19 -3 24
-5 5 -10 26 -12 46 -1 20 -6 34 -10 32 -4 -3 -9 6 -9 20 -3 47 -4 51 -10 56
-3 3 -16 37 -30 75 -13 39 -28 73 -34 77 -5 4 -6 8 -2 8 5 0 2 12 -6 28 -14
26 -87 171 -111 219 -6 13 -14 23 -18 23 -5 0 -8 6 -8 13 0 13 -50 93 -75 118
-8 9 -15 19 -15 22 0 4 -6 15 -14 24 -8 10 -38 47 -67 83 -63 78 -234 250
-304 305 -27 22 -52 43 -55 46 -7 8 -175 120 -220 146 -229 134 -476 222 -750
268 -19 3 -48 8 -65 11 -33 6 -441 14 -447 9z"/>
<path d="M4082 1098 c-15 -15 -15 -28 0 -28 6 0 8 3 5 7 -4 3 -2 12 4 20 14
16 7 17 -9 1z"/>
<path d="M3815 860 c-3 -5 -1 -10 4 -10 6 0 11 5 11 10 0 6 -2 10 -4 10 -3 0
-8 -4 -11 -10z"/>
</g>
</svg>
